<?xml version="1.0" encoding="utf-8"?><svg version="1.1" xmlns="http://www.w3.org/2000/svg" xmlns:xlink="http://www.w3.org/1999/xlink" x="0px" y="0px" viewBox="0 0 65 61" style="enable-background:new 0 0 65 61;" xml:space="preserve"><style type="text/css">.st0{display:none}
.st1{display:inline;opacity:0.5;fill:#00B37E;enable-background:new }
.st2{display:inline;fill:#00B37E}
.st3{fill:none;stroke:#3294F8;stroke-width:1.5}
</style><g id="Camada_1" class="st0"><path class="st1" d="M64.1,0.4L48.4,56c-0.1,0.3-0.4,0.3-0.6,0.2l-10.5-10l7.9-27.8c0.1-0.3-0.2-0.5-0.4-0.4l-29.3,7.5L5,15.5
c-0.2-0.2-0.1-0.5,0.2-0.6L63.6,0C63.9,0,64.1,0.2,64.1,0.4z"/><path class="st1" d="M37.3,46.1l-4,14.4c-0.1,0.3-0.4,0.3-0.6,0.2L0.1,29.8c-0.2-0.2-0.1-0.5,0.2-0.6l15.1-3.9L37.3,46.1z"/><path class="st2" d="M45.2,18.3l-7.9,27.8L15.4,25.4l29.3-7.5C45,17.8,45.3,18.1,45.2,18.3z"/></g><g id="Camada_2"><path class="st3" d="M27.4,27.1L27.4,27.1c1,1,1,2.6,0,3.5l0,0L5.9,52.2c-1,1-2.6,1-3.6,0c-1-1-1-2.6,0-3.5h0l19-19l0.8-0.8
l-0.8-0.8l-19-19c0,0,0,0,0,0c-1-1-1-2.6,0-3.6c0,0,0,0,0,0c0,0,0,0,0,0c1-1,2.6-1,3.6,0c0,0,0,0,0,0L27.4,27.1z M61.6,47.9
c1.4,0,2.5,1.1,2.5,2.5c0,1.4-1.1,2.5-2.5,2.5H29.2c-1.4,0-2.5-1.1-2.5-2.5c0-1.4,1.1-2.5,2.5-2.5H61.6z"/></g></svg>